<svg id="Layer_1" data-name="Layer 1" xmlns="http://www.w3.org/2000/svg" viewBox="0 0 1099.89 606.04"><defs><style>.cls-1{fill:#145388;}</style></defs><title>logo</title><path d="M419.67,682.25V420.64h102q34.38,0,58.67,10.84t37.38,31.39q13.07,20.56,13.08,49T617.75,560.6q-13.1,20.37-37.38,31.21T521.7,602.65H440.22L457,585.46v96.79ZM457,589.19l-16.82-18.31h80.36q35.86,0,54.37-15.51t18.5-43.54q0-28-18.5-43.35t-54.37-15.33H440.22L457,434.47Zm137.53,93.06-66.52-94.93h40l67.27,94.93Z" transform="translate(-419.67 -150.96)"/><path d="M746.69,684.5q-22.07,0-38.69-7.48t-25.6-20.74a52.48,52.48,0,0,1-9-30.09A56.6,56.6,0,0,1,681.1,597q7.65-13.08,25-20.93t46.9-7.85h62.79v25.79H754.54q-26.91,0-36.26,9a29,29,0,0,0-9.34,21.68,27.87,27.87,0,0,0,11.58,23.36q11.58,8.78,32.15,8.78,20.18,0,35.31-9a51.07,51.07,0,0,0,21.87-26.16l7.1,24.66q-7.11,17.58-25,27.85T746.69,684.5Zm65-2.25V640.39l-1.87-7.84V561.16q0-22.78-13.27-35.31t-39.8-12.53a104.87,104.87,0,0,0-34.38,5.8q-16.83,5.79-28.41,15.51l-15-26.91q15.32-12.33,36.81-18.87a153.87,153.87,0,0,1,45-6.55q40.73,0,62.79,19.81t22.05,60.55V682.25Z" transform="translate(-419.67 -150.96)"/><path d="M888.33,513.7V484.17h126.32V513.7Zm96.42,170.8q-29.89,0-46.34-16.08t-16.44-46V440.82h35.88V621q0,16.08,8,24.67t23,8.59q16.82,0,28-9.34l11.21,25.79a52.31,52.31,0,0,1-19.62,10.46A83.57,83.57,0,0,1,984.75,684.5Z" transform="translate(-419.67 -150.96)"/><rect x="656.27" y="333.21" width="35.88" height="198.08"/><path d="M1156.29,513.7V484.17h126.32V513.7Zm33.64,168.55V466.61q0-29.16,17-46.53t48.4-17.38a87,87,0,0,1,22.24,2.8,48.33,48.33,0,0,1,18.12,8.78l-10.83,27.29a42.16,42.16,0,0,0-12.71-6.92,45.89,45.89,0,0,0-15-2.43q-15.71,0-23.92,8.79t-8.22,26v26.54l.75,16.44V682.25Z" transform="translate(-419.67 -150.96)"/><path d="M1352.87,757a83.8,83.8,0,0,1-27.65-4.67,65.31,65.31,0,0,1-23.17-13.64l15.32-26.91a54,54,0,0,0,16.44,10.84,49.11,49.11,0,0,0,19.06,3.73q13.08,0,21.68-6.72t16.07-23.92L1403,668.42l3.74-4.48,77.74-179.77h35.13l-96,217.89q-8.6,20.93-19.25,32.89t-23.36,17A75.37,75.37,0,0,1,1352.87,757ZM1400,688.61l-90.44-204.44h37.37l77,176.41Z" transform="translate(-419.67 -150.96)"/><path class="cls-1" d="M1093.09,460c-1.39-3.06-3.19-6.85-4.79-10.73a3.51,3.51,0,0,1,.1-2.94c5.08-5.7,4.55-12.78,5.31-19.72,1.75-16,4-32,6.16-47.94a202.79,202.79,0,0,1,9.62-41.74c1.56-4.35,3.3-8.62,5.14-13.42,1.19,2.59,2.1,4.58,3,6.56l.77.33c3.15-31.16,19-54.92,41.13-76l-.5,12.65c2.8-4.38,5-8,7.38-11.54,6.06-8.94,14.64-14.86,23.72-19.89,18.66-10.34,37.53-20.29,56.32-30.4.37-.19.79-.28,1.7-.61-.84,3.23-1.58,6.06-2.42,9.24a4.31,4.31,0,0,0,1.12-.5c11.17-11,25-16.17,39.75-19.87,10.12-2.54,20.33-5.3,30-9.35,14.63-6.15,25.28-17.66,34.52-30.58.62-.87,1.27-1.71,1.91-2.56l.86.37c-3.12,10-5.93,20.12-9.43,30-6.44,18.16-15.55,34.73-29.06,48.47-13.18,13.4-29,21.93-46.64,27.23a8.77,8.77,0,0,0-3.42,1.64l15.21,3.18c-1.67,1.28-2.92,2.35-4.27,3.25-15.66,10.47-32.69,18.2-49.42,26.56-10,5-19.72,10.55-29.57,15.85l.08,1.35,13.61,5.25a83,83,0,0,1-21.14,16.65c-6.9,3.67-14.11,6.71-21.18,10.05s-13.78,7.38-19.54,13.61l10.58,1.07c-19.51,15.27-36.42,32-47.45,54.33,1.55-13.7,8.44-41.87,19-63.89a176.27,176.27,0,0,1,39-53.27c16.35-15.2,34.9-27,54.42-37.42-2.34.94-4.7,1.85-7,2.82-45.21,18.94-77.11,51.84-97.31,97.38-10,22.54-17.09,45.79-19.72,70.43-.38,3.53-1.51,7.09-1.27,10.56.2,3,1.56,6.14,2.9,9a4.87,4.87,0,0,1-.36,5.48" transform="translate(-419.67 -150.96)"/><path class="cls-1" d="M1094.35,471.43a18.63,18.63,0,0,1-13.71-5.56,18.24,18.24,0,0,1-5.56-13.34,17.62,17.62,0,0,1,5.56-13.16,19,19,0,0,1,13.71-5.38,19.4,19.4,0,0,1,13.72,5.19,17.06,17.06,0,0,1,5.56,13,19,19,0,0,1-5.38,13.71Q1102.88,471.43,1094.35,471.43Z" transform="translate(-419.67 -150.96)"/></svg>