<svg id="Layer_1" data-name="Layer 1" xmlns="http://www.w3.org/2000/svg" viewBox="0 0 402.06 112.65"><defs><style>.cls-1{fill:#f75314;}.cls-2{font-size:100px;font-family:Roboto-Bold, Roboto;font-weight:700;}</style></defs><title>black</title><path class="cls-1" d="M172.78,100.59a12.52,12.52,0,0,0-6.3,4.8c-.56,1-11.3,30-11.15,30.08s3.95,1.52,8.65,3.23c5.82,2.15,8.62,3.07,8.71,2.89s2.5-6.7,5.39-14.58c5.76-15.68,5.73-15.68,5.1-18.73a10.88,10.88,0,0,0-4.6-7.15,5.15,5.15,0,0,0-3.09-.68A13.21,13.21,0,0,0,172.78,100.59Z" transform="translate(-67.98 -100.3)"/><path class="cls-1" d="M157,103.29a4.56,4.56,0,0,0-1.51,1.18c-.32.45-3,7.29-6.25,16.11-6.12,16.54-6.12,16.56-5.22,18.37a3.87,3.87,0,0,0,3.61,2.14,4.1,4.1,0,0,0,4.07-2.79c.22-.57,2.84-7.52,5.8-15.46,4.8-12.93,5.37-14.58,5.39-15.82a3.76,3.76,0,0,0-1.83-3.45A4.5,4.5,0,0,0,157,103.29Z" transform="translate(-67.98 -100.3)"/><path class="cls-1" d="M91.92,130.4c-4.13.74-9.34,4.13-12.66,8.26-4.49,5.57-7.4,13-9.93,25.36s-1.46,21.4,3.12,26a11.68,11.68,0,0,0,8.73,3.58c3.59,0,6.45-1.1,11.71-4.49a37,37,0,0,1,3.23-1.94,10.24,10.24,0,0,1-.2,1.79,12.24,12.24,0,0,0,.54,6.47,8.35,8.35,0,0,0,6,4.85c1.67.28,4.4-.58,7-2.18l.7-.43.54.79c1.26,1.82,3.39,2.77,6.91,3,2.61.2,2.77.27,5.8,3,1.91,1.71,3,2.14,4.62,2a4.6,4.6,0,0,0,3.86-4.42c0-1.65-.68-2.69-3.16-4.86-3.88-3.38-5.51-4.19-9-4.51l-1.74-.16-.4-.9a6.28,6.28,0,0,0-3.12-2.82c-2.39-1.11-4.92-.9-7.74.59-.9.49-1.64.79-1.64.67s.31-1.6.7-3.31c.76-3.37.92-6.32.45-7.77a5.51,5.51,0,0,0-2.58-2.66,14.1,14.1,0,0,0-5.55.09c-2.14.52-4.74,1.81-8.84,4.47-4.65,3-5.83,3.56-7.43,3.7-2.59.25-3.74-1.08-4.44-5.06C76.4,174.45,78,164,81,155c2.58-7.72,5.67-12.21,10.14-14.72,2.84-1.55,4.56-1.42,6.54.57s3.23,4.85,4,9.14a13.47,13.47,0,0,0,.84,3.25,4.38,4.38,0,0,0,3.18,2.14,3.93,3.93,0,0,0,3.72-1.15c1.36-1.31,1.63-2.32,1.27-5-1.45-11-7.7-18.59-15.57-19A18.41,18.41,0,0,0,91.92,130.4Z" transform="translate(-67.98 -100.3)"/><path class="cls-1" d="M152.47,142.58c-.38.64-14.29,38.89-14.69,40.47a52.11,52.11,0,0,0-1.38,11.55c-.13,4.42.07,6.59.77,8.85.34,1.17.34,1.21-.25,2.86-.68,1.92-.72,2.64-.23,3.41a1.93,1.93,0,0,0,2.55.63c.7-.36.91-.65,1.61-2.39s.9-2.08,1.8-2.69c3.36-2.23,9.12-9.63,11.87-15.18.93-1.92,15.21-40.49,15.21-41.12,0-.16,0-.29-.07-.29s-3.9-1.4-8.57-3.14S152.54,142.49,152.47,142.58Z" transform="translate(-67.98 -100.3)"/><text class="cls-2" transform="translate(138.29 85.55)">Ratify</text></svg>