<svg xmlns="http://www.w3.org/2000/svg" viewBox="0 0 265.83 309.03"><defs><style>.cls-1{fill:#145388;}</style></defs><title>Asset 1quill</title><g id="Layer_2" data-name="Layer 2"><g id="Layer_1-2" data-name="Layer 1"><path class="cls-1" d="M5.06,309C3.67,306,1.87,302.18.27,298.3a3.51,3.51,0,0,1,.1-2.94c5.08-5.7,4.55-12.78,5.31-19.72,1.75-16,4-32,6.16-47.94A202.79,202.79,0,0,1,21.46,186c1.56-4.35,3.3-8.62,5.14-13.42,1.19,2.59,2.1,4.58,3,6.56l.77.33c3.15-31.16,19-54.92,41.13-76L71,116.06c2.8-4.38,5-8,7.38-11.54C84.46,95.58,93,89.66,102.12,84.63c18.66-10.34,37.53-20.29,56.32-30.4.37-.19.79-.28,1.7-.61-.84,3.23-1.58,6.06-2.42,9.24a4.31,4.31,0,0,0,1.12-.5c11.17-11,25-16.17,39.74-19.87,10.13-2.54,20.33-5.3,30-9.35C243.17,27,253.82,15.48,263.06,2.55c.62-.86,1.27-1.7,1.91-2.55l.86.37c-3.12,10-5.93,20.12-9.43,30C250,48.51,240.85,65.08,227.34,78.82c-13.18,13.4-29,21.93-46.64,27.23a8.77,8.77,0,0,0-3.42,1.64l15.21,3.18c-1.67,1.28-2.92,2.35-4.27,3.25-15.66,10.47-32.69,18.2-49.42,26.56-10,5-19.72,10.55-29.57,15.85l.08,1.35,13.61,5.25a83,83,0,0,1-21.14,16.65c-6.9,3.67-14.11,6.71-21.18,10.05s-13.78,7.38-19.54,13.61l10.58,1.07c-19.51,15.27-36.42,32-47.45,54.33,1.55-13.7,8.44-41.87,19-63.89a176.27,176.27,0,0,1,39.05-53.27c16.35-15.2,34.9-27,54.42-37.42-2.34.94-4.7,1.85-7,2.82C84.44,126,52.54,158.92,32.34,204.46c-10,22.54-17.09,45.79-19.72,70.43-.38,3.53-1.51,7.09-1.27,10.56.2,3.05,1.56,6.14,2.9,9a4.87,4.87,0,0,1-.36,5.48"/></g></g></svg>